<svg xmlns="http://www.w3.org/2000/svg" xmlns:xlink="http://www.w3.org/1999/xlink" viewBox="0 0 1140.7 1140.7"><defs><style>.cls-1{fill:none;}.cls-2{isolation:isolate;}.cls-3{font-size:78.97px;}.cls-3,.cls-4,.cls-6{fill:#9400a0;}.cls-3,.cls-4{font-family:PirulenRg-Regular, Pirulen;}.cls-4{font-size:68.48px;}.cls-5{letter-spacing:-0.02em;}.cls-7{clip-path:url(#clip-path);}.cls-8{fill:url(#linear-gradient);}.cls-9{clip-path:url(#clip-path-2);}.cls-10{mix-blend-mode:saturation;}.cls-11{fill:url(#linear-gradient-2);}.cls-12{clip-path:url(#clip-path-3);}.cls-13{opacity:0.91;}.cls-14{clip-path:url(#clip-path-4);}.cls-15{fill:#fff;}.cls-16{fill:#e6e6e6;}.cls-17{opacity:0.67;}.cls-18{opacity:0.53;}.cls-19{mix-blend-mode:luminosity;}.cls-20{fill:#83a9b1;}.cls-21{fill:#b5e2ed;}.cls-22{fill:#9ec8d2;}.cls-23{fill:#779ba0;}.cls-24{fill:#93c6ce;}.cls-25{fill:#698a8e;}.cls-26{fill:#84b9c1;}.cls-27{fill:#86b0b7;}.cls-28{fill:#70969b;}.cls-29{fill:#a3d0d8;}.cls-30{fill:#66898d;}.cls-31{fill:#4e6c6d;}.cls-32{opacity:0.07;fill:url(#linear-gradient-4);}.cls-33{clip-path:url(#clip-path-7);}.cls-34{clip-path:url(#clip-path-8);}</style><clipPath id="clip-path" transform="translate(-43.92 105.25)"><path class="cls-1" d="M284.37,274.76l-.91,171.44-51.25-75.84-3.4-67.68H194.25L172.8,274.79H210Zm-74.14-22H133.41l45.05,68.11h31.77l3,52.5,87.47,130.88V253l-90.52-.2Z"/></clipPath><linearGradient id="linear-gradient" x1="401.04" y1="449.86" x2="401.04" y2="298.76" gradientUnits="userSpaceOnUse"><stop offset="0" stop-color="#93278f"/><stop offset="0.39" stop-color="#90278f"/><stop offset="0.69" stop-color="#87278f"/><stop offset="0.94" stop-color="#77278f"/><stop offset="1" stop-color="#72278f"/></linearGradient><clipPath id="clip-path-2" transform="translate(-43.92 105.25)"><path class="cls-1" d="M407.63,252.61h77.74L439.55,321H407.63l-3.06,52.74L316.7,505.24V252.81Z"/></clipPath><linearGradient id="linear-gradient-2" x1="129.22" y1="195.91" x2="424.55" y2="206.57" gradientUnits="userSpaceOnUse"><stop offset="0" stop-color="#93278f"/><stop offset="0.15" stop-color="#8e278f"/><stop offset="1" stop-color="#72278f"/></linearGradient><clipPath id="clip-path-3" transform="translate(-43.92 105.25)"><path class="cls-1" d="M123.76,241.44,73.08,165H538.92l-50.85,76.6Z"/></clipPath><clipPath id="clip-path-4" transform="translate(-43.92 105.25)"><path class="cls-1" d="M145.58,239.56l-47.46-71.5h434.8l-47.3,71.37Z"/></clipPath><linearGradient id="linear-gradient-4" x1="7393.16" y1="449.86" x2="7393.16" y2="298.76" gradientTransform="matrix(-1, 0, 0, 1, 7610.24, 0)" xlink:href="#linear-gradient"/><clipPath id="clip-path-7" transform="translate(-43.92 105.25)"><rect class="cls-1" x="169.67" y="354.93" width="181.33" height="145.59"/></clipPath><clipPath id="clip-path-8" transform="translate(-43.92 105.25)"><path class="cls-1" d="M210.41,246.95H132.67l45.82,68.42h31.92l3.05,52.73,87.88,131.48V247.15Zm73.47,193.48-52-76-3-67h-35l-21-28h111Z"/></clipPath><image id="image" width="1024" height="1024" xlink:href="depositphotos_81636026-stock-illustration-abstract-tricolor-flag-background.jpg"/></defs><title>newLOGOf</title><g class="cls-2"><g id="Layer_1" data-name="Layer 1"><text class="cls-3" transform="translate(286 716.39)">‘20</text><text class="cls-4" transform="translate(48.37 707.57)">FE<tspan class="cls-5" x="111.83" y="0">S</tspan><tspan x="175.37" y="0">T</tspan></text><path class="cls-6" d="M103.79,545V521.26a2,2,0,0,0-1.95-1.95H97.61a.8.8,0,0,1-.8-.8v-3a.8.8,0,0,1,.8-.8h4.15a2,2,0,0,0,1.95-1.93l0-4a.88.88,0,0,1,.88-.87h3.92a.88.88,0,0,1,.88.86l.11,4.1a2,2,0,0,0,1.95,1.89h8.22a.55.55,0,0,1,.55.55v3.53a.55.55,0,0,1-.55.55h-8a2,2,0,0,0-1.95,1.95V545Z" transform="translate(-43.92 105.25)"/><path class="cls-6" d="M126,542.36V516.15a1.62,1.62,0,0,1,1.62-1.62h27a1.62,1.62,0,0,1,1.62,1.6l.13,12.81a1.62,1.62,0,0,1-1.62,1.64h-3.28l0-10.1a1.62,1.62,0,0,0-1.62-1.61H133.18a1.62,1.62,0,0,0-1.62,1.62v4.11a1.62,1.62,0,0,0,1.62,1.62h18.59v4.34H133.18a1.62,1.62,0,0,0-1.62,1.62V538a1.62,1.62,0,0,0,1.62,1.62h21.44a1.62,1.62,0,0,1,1.62,1.62v1.28a1.44,1.44,0,0,1-1.44,1.44H127.57A1.57,1.57,0,0,1,126,542.36Z" transform="translate(-43.92 105.25)"/><path class="cls-6" d="M172,543.69a15.37,15.37,0,0,1-4.34-.53,7.93,7.93,0,0,1-2.92-1.49,5.61,5.61,0,0,1-1.64-2.28,8.07,8.07,0,0,1-.51-2.94V521a8.07,8.07,0,0,1,.51-2.94,5.62,5.62,0,0,1,1.64-2.28,8,8,0,0,1,2.92-1.49,15.37,15.37,0,0,1,4.34-.53h21.13v4.43H172q-3.75,0-3.75,2.77V536.5q0,2.77,3.75,2.77h21.13v4.43Z" transform="translate(-43.92 105.25)"/><path class="cls-6" d="M231.84,522.32v21.37H225.6v-15a4.89,4.89,0,0,0-4.89-4.89H210.07a5,5,0,0,0-5,5v14.82h-6.24v-37a.86.86,0,0,1,.86-.86h4.53a.86.86,0,0,1,.86.86v8.75a3.51,3.51,0,0,0,3.53,3.51l19.75-.12A3.51,3.51,0,0,1,231.84,522.32Z" transform="translate(-43.92 105.25)"/><g class="cls-7"><use transform="translate(292.75 609.49) rotate(180) scale(0.22 0.25)" xlink:href="#image"/></g><path class="cls-8" d="M407.63,252.61h77.74L439.55,321H407.63l-3.06,52.74L316.7,505.24V252.81Z" transform="translate(-43.92 105.25)"/><g class="cls-9"><use class="cls-10" transform="translate(300.92 248.09) scale(0.49)" xlink:href="#image"/></g><path class="cls-11" d="M123.76,241.44,73.08,165H538.92l-50.85,76.6Z" transform="translate(-43.92 105.25)"/><g class="cls-12"><use class="cls-10" transform="translate(43.92 134.06) rotate(-14.87) scale(0.91)" xlink:href="#image"/></g><g class="cls-13"><g class="cls-14"><rect class="cls-15" x="423.17" y="222.37" width="8.21" height="0.87" transform="translate(-76.32 472.64) rotate(-45)"/><circle class="cls-15" cx="380.76" cy="330.64" r="1.73"/><rect class="cls-15" x="380.33" y="318.97" width="0.87" height="12.11"/><rect class="cls-15" x="380.33" y="330.21" width="12.11" height="0.87"/><rect class="cls-15" x="510.28" y="233.16" width="9.18" height="13.46" transform="translate(-62.74 539.58) rotate(-45)"/><rect class="cls-15" x="499.47" y="222.34" width="9.18" height="13.46" transform="translate(-58.26 528.76) rotate(-45)"/><rect class="cls-15" x="488.65" y="211.53" width="9.18" height="13.46" transform="translate(-53.78 517.95) rotate(-45)"/><rect class="cls-15" x="477.84" y="200.71" width="9.18" height="13.46" transform="translate(-49.3 507.14) rotate(-45)"/><rect class="cls-15" x="502.5" y="240.94" width="9.18" height="13.46" transform="translate(-70.53 536.35) rotate(-45)"/><rect class="cls-15" x="491.68" y="230.13" width="9.18" height="13.46" transform="translate(-66.05 525.54) rotate(-45)"/><rect class="cls-15" x="480.87" y="219.31" width="9.18" height="13.46" transform="translate(-61.57 514.73) rotate(-45)"/><rect class="cls-15" x="470.05" y="208.5" width="9.18" height="13.46" transform="translate(-57.09 503.91) rotate(-45)"/><rect class="cls-15" x="438.91" y="161.78" width="9.18" height="13.46" transform="translate(-33.18 468.21) rotate(-45)"/><rect class="cls-15" x="428.1" y="150.97" width="9.18" height="13.46" transform="translate(-28.7 457.39) rotate(-45)"/><rect class="cls-15" x="417.28" y="140.16" width="9.18" height="13.46" transform="translate(-24.22 446.58) rotate(-45)"/><rect class="cls-15" x="406.47" y="129.34" width="9.18" height="13.46" transform="translate(-19.74 435.77) rotate(-45)"/><rect class="cls-15" x="431.12" y="169.57" width="9.18" height="13.46" transform="translate(-40.96 464.98) rotate(-45)"/><rect class="cls-15" x="420.31" y="158.76" width="9.18" height="13.46" transform="translate(-36.49 454.17) rotate(-45)"/><rect class="cls-15" x="409.5" y="147.94" width="9.18" height="13.46" transform="translate(-32.01 443.35) rotate(-45)"/><rect class="cls-15" x="398.68" y="137.13" width="9.18" height="13.46" transform="translate(-27.53 432.54) rotate(-45)"/><rect class="cls-15" x="442.53" y="178.57" width="11.01" height="3.67" transform="translate(-40.26 474.9) rotate(-45)"/><rect class="cls-15" x="463.3" y="200.2" width="11.01" height="3.67" transform="translate(-49.47 495.92) rotate(-45)"/><path class="cls-15" d="M463.61,168.3l-24.22,24.22,17.73,17.73,24.66-24.66a24.58,24.58,0,0,0-6.06-11.25C471,169.59,463.61,168.3,463.61,168.3Z" transform="translate(-43.92 105.25)"/><polygon class="cls-15" points="398.44 302.1 395.3 305.3 406.22 315.94 409.13 312.71 398.44 302.1"/><polygon class="cls-15" points="397.77 308.76 395.04 311.18 400.23 316.37 402.82 313.77 397.77 308.76"/><path class="cls-15" d="M424.68,206.36l18.6,18.6s4.33-9.52-2.16-16S424.68,206.36,424.68,206.36Z" transform="translate(-43.92 105.25)"/><rect class="cls-15" x="429.77" y="204.4" width="3.67" height="28.14" transform="translate(-71.99 474.43) rotate(-45)"/><path class="cls-15" d="M420.79,237.94a8.66,8.66,0,0,1-8.65-8.65c0-.17,0-.33,0-.49l.06-.86,1.73.11-.06.86c0,.12,0,.25,0,.38a6.91,6.91,0,0,0,7,6.92h.32l.86-.06.11,1.73-.86.06Z" transform="translate(-43.92 105.25)"/><path class="cls-15" d="M420.79,244.86a15.59,15.59,0,0,1-15.57-15.57c0-.16,0-.32,0-.48l.05-.86,1.73.1-.05.86c0,.13,0,.25,0,.38a13.86,13.86,0,0,0,13.84,13.84h.38l.86-.05.1,1.73-.86.05Z" transform="translate(-43.92 105.25)"/><path class="cls-15" d="M420.79,252.21a23,23,0,0,1-22.93-22.93c0-.16,0-.33,0-.48l0-.86,1.73.1,0,.86c0,.12,0,.25,0,.38a21.22,21.22,0,0,0,21.19,21.19h.38l.86,0,.1,1.73-.86,0Z" transform="translate(-43.92 105.25)"/></g></g><path class="cls-16" d="M208.15,201c-1.81-3.38-4.62-4.24-8-2.43,3.38-1.81,4.24-4.62,2.43-8,1.81,3.38,4.62,4.24,8,2.43C207.2,194.79,206.34,197.6,208.15,201Z" transform="translate(-43.92 105.25)"/><g class="cls-17"><path class="cls-16" d="M276.24,227.18c.1-2.87-1.39-4.47-4.26-4.58,2.87.1,4.47-1.39,4.58-4.26-.1,2.87,1.39,4.47,4.26,4.58C278,222.81,276.34,224.31,276.24,227.18Z" transform="translate(-43.92 105.25)"/></g><path class="cls-16" d="M232.85,174.39a2.26,2.26,0,0,0-2.1,2.87,2.26,2.26,0,0,0-2.87-2.1,2.26,2.26,0,0,0,2.1-2.87A2.26,2.26,0,0,0,232.85,174.39Z" transform="translate(-43.92 105.25)"/><path class="cls-16" d="M111.84,180.53a2.81,2.81,0,0,0-4.24-1.28,2.81,2.81,0,0,0,1.28-4.24,2.81,2.81,0,0,0,4.24,1.28A2.81,2.81,0,0,0,111.84,180.53Z" transform="translate(-43.92 105.25)"/><g class="cls-18"><path class="cls-16" d="M107.73,206.45a1.55,1.55,0,0,0-2.33-.71,1.55,1.55,0,0,0,.71-2.33,1.55,1.55,0,0,0,2.33.71A1.55,1.55,0,0,0,107.73,206.45Z" transform="translate(-43.92 105.25)"/></g><path class="cls-8" d="M407.63,252.61h77.74L439.55,321H407.63l-3.06,52.74L316.7,505.24V252.81Z" transform="translate(-43.92 105.25)"/><g class="cls-9"><use class="cls-10" transform="translate(300.92 248.09) scale(0.49)" xlink:href="#image"/></g><g class="cls-19"><g class="cls-9"><ellipse class="cls-20" cx="337.61" cy="309" rx="32.2" ry="35.47" transform="translate(-161.86 370.3) rotate(-36.96)"/><path class="cls-21" d="M368.65,324.63c4.38-10.82,2.77-24.25-5.31-35-11.78-15.65-32.85-19.68-47.06-9s-16.18,32-4.4,47.7a38.28,38.28,0,0,0,12.35,10.69S342.77,340.71,368.65,324.63Z" transform="translate(-43.92 105.25)"/><path class="cls-20" d="M316.28,280.65c-14.21,10.69-16.18,32-4.4,47.7q.79,1.05,1.64,2c2.62.56,7.19.86,14.81-2.3s8.86-4.28,20.27-8.11,13.33-8.91,17.55-11.77a23,23,0,0,0,4.09-3.47,38.24,38.24,0,0,0-6.91-15.1C351.56,274,330.49,270,316.28,280.65Z" transform="translate(-43.92 105.25)"/><path class="cls-21" d="M316.28,280.65c-12.71,9.56-15.63,27.67-7.67,42.58,4-.6,29.66-5.49,54.81-33.48l-.09-.12C351.56,274,330.49,270,316.28,280.65Z" transform="translate(-43.92 105.25)"/><path class="cls-22" d="M304.34,309.09s16.66-4.68,29.74-14.58c11.49-8.69,18.54-11.07,22.24-12.05-12-9.43-28.34-10.61-40-1.8C307.43,287.31,303.33,298.11,304.34,309.09Z" transform="translate(-43.92 105.25)"/><path class="cls-20" d="M349,277.93c-10.76-5-23.24-4.38-32.68,2.72A29.86,29.86,0,0,0,306,294.76h0s15.77-1.41,42.92-16.83Z" transform="translate(-43.92 105.25)"/><path class="cls-21" d="M307.31,291.68c7.79-1.23,18.82-4.8,33.07-16.47a30.65,30.65,0,0,0-24.09,5.45A29.64,29.64,0,0,0,307.31,291.68Z" transform="translate(-43.92 105.25)"/><path class="cls-23" d="M363.34,289.64C353.21,276.17,336.2,271.32,322.6,277c.67.2,41.68,12.62,31,63.51a29.44,29.44,0,0,0,5.36-3.2C373.14,326.65,375.11,305.29,363.34,289.64Z" transform="translate(-43.92 105.25)"/><path class="cls-24" d="M361.92,287.88c-.25-.29-.49-.58-.75-.86l-.44-.48-.71-.75-.48-.48-.73-.7-.49-.45-.78-.68-.47-.4c-.32-.27-.65-.52-1-.78l-.3-.24q-.63-.48-1.27-.92l-.55-.37-.77-.51-.64-.4-.7-.42-.69-.39-.67-.36-.73-.38-.64-.3-.78-.36-.53-.22q-1.6-.68-3.24-1.19l-.38-.12-1-.29-.42-.11-1-.25-.38-.08-1.09-.21-.27,0a32.94,32.94,0,0,0-6.69-.44h0l-1.33.08h-.07A30.35,30.35,0,0,0,322.6,277h0c.63.19,37,11.2,32.34,54.9a113,113,0,0,0,13.71-7.3c.17-.42.33-.84.48-1.26l.14-.4q.18-.53.34-1.06l.1-.31q.19-.66.35-1.32l.1-.4q.12-.53.23-1.06l.08-.38q.12-.67.22-1.35c0-.13,0-.26.05-.38q.07-.54.13-1.08c0-.14,0-.28,0-.42,0-.46.07-.92.09-1.38,0-.11,0-.22,0-.33q0-.57,0-1.14c0-.15,0-.29,0-.44,0-.47,0-.94,0-1.41,0-.07,0-.15,0-.22q0-.62-.09-1.25c0-.15,0-.29,0-.44,0-.43-.09-.87-.15-1.3l0-.17c-.07-.48-.15-1-.24-1.43l-.08-.43q-.12-.6-.26-1.21l-.06-.27c-.11-.48-.24-.95-.37-1.42l-.12-.4q-.17-.58-.36-1.16l-.11-.33q-.24-.71-.51-1.41l-.14-.34q-.23-.58-.48-1.15l-.15-.35q-.31-.7-.65-1.39l-.14-.27q-.29-.58-.61-1.16l-.2-.36c-.26-.46-.52-.91-.8-1.36l-.11-.17q-.37-.6-.78-1.2l-.24-.35c-.31-.44-.62-.88-.95-1.32s-.7-.9-1.06-1.34Z" transform="translate(-43.92 105.25)"/><path class="cls-25" d="M361.92,287.88c-.25-.29-.49-.58-.75-.86l-.44-.48-.71-.75-.48-.48-.73-.7-.49-.45-.78-.68-.47-.4c-.32-.27-.65-.52-1-.78l-.3-.24q-.63-.48-1.27-.92l-.55-.37-.77-.51-.64-.4-.7-.42-.69-.39-.67-.36-.73-.38-.64-.3-.78-.36-.53-.22q-1.6-.68-3.24-1.19l-.38-.12-1-.29-.42-.11-1-.25-.38-.08-1.09-.21-.27,0a32.94,32.94,0,0,0-6.69-.44h0l-1.33.08h-.07A30.35,30.35,0,0,0,322.6,277h0c.55.16,28.59,8.66,32.34,40.25,6-3.28,7.94-6.85,11.21-9.07a23,23,0,0,0,4.09-3.46l-.08-.36q-.13-.61-.29-1.21c-.05-.21-.11-.43-.17-.64-.12-.43-.25-.87-.39-1.3-.05-.17-.1-.35-.16-.52-.2-.6-.41-1.2-.65-1.8l-.08-.2q-.31-.79-.67-1.58l-.27-.58c-.19-.4-.38-.79-.57-1.18l-.34-.65q-.3-.56-.62-1.11l-.37-.64c-.23-.39-.48-.77-.73-1.15l-.35-.54c-.38-.56-.76-1.11-1.17-1.65s-.7-.9-1.06-1.34Z" transform="translate(-43.92 105.25)"/><path class="cls-26" d="M363.42,289.76l-.09-.12q-.52-.69-1.06-1.34l-.36-.42c-.25-.29-.49-.58-.75-.86l-.44-.48-.71-.75-.48-.48-.73-.7-.49-.45-.78-.68-.47-.4c-.32-.27-.65-.52-1-.78l-.3-.24q-.63-.48-1.27-.92l-.55-.37-.77-.51-.64-.4-.7-.42-.69-.39-.67-.36-.73-.38-.64-.3-.78-.36-.53-.22q-1.6-.68-3.24-1.19l-.38-.12-1-.29-.42-.11-1-.25-.38-.08-1.09-.21-.27,0a32.94,32.94,0,0,0-6.69-.44h0l-1.33.08h-.07A30.35,30.35,0,0,0,322.6,277h0c.45.13,19.18,5.81,28.11,25A125.26,125.26,0,0,0,363.42,289.76Z" transform="translate(-43.92 105.25)"/><path class="cls-27" d="M356.09,282.28l-.62-.47-.55-.4-.61-.43-.59-.4-.6-.38-.64-.39-.57-.34-.69-.39-.54-.29-.75-.39-.5-.25-.83-.38-.44-.2-.93-.39-.35-.14-1.07-.39-.23-.08-1.28-.41h0a32,32,0,0,0-21.67.89,49.45,49.45,0,0,1,19.16,12.14c7.06-4.43,11.76-6,14.55-6.72Z" transform="translate(-43.92 105.25)"/><path class="cls-28" d="M348.46,277.71l-.29-.13q-1.24-.54-2.5-1l-.15-.05-1.16-.37-.16,0a32,32,0,0,0-21.6.91,47.67,47.67,0,0,1,13.84,7.45c3.85-1.84,8-4,12.51-6.55Z" transform="translate(-43.92 105.25)"/><path class="cls-29" d="M336.14,274.72H336l-1.21,0h-.22l-1.2,0h-.2l-1.24.07h-.09A30.33,30.33,0,0,0,322.6,277a44.1,44.1,0,0,1,9.37,4.41,104.27,104.27,0,0,0,8.4-6.23A33.42,33.42,0,0,0,336.14,274.72Z" transform="translate(-43.92 105.25)"/><path class="cls-30" d="M305.9,316.45s-18.73,9.58-17.8,14.82,32.72-4,52.76-12.45,41.87-19.66,47.05-28c4.71-7.57-23.13,1-23.13,1l-1.23-1.79s22.47-8.42,32.4-4.63c8.67,3.31-12.06,19.73-52.64,37-30.8,13.14-61.71,20.13-61.36,11,.37-9.67,23.35-19.21,23.35-19.21Z" transform="translate(-43.92 105.25)"/><path class="cls-31" d="M363.54,290.06l1.23,1.79s27.85-8.58,23.13-1c-4.07,6.54-18,14.67-33.7,22,.25,1.36.52,2.85.73,4.42,33.08-15.37,48.83-28.87,41-31.86C386,281.64,363.54,290.06,363.54,290.06Z" transform="translate(-43.92 105.25)"/></g></g><path class="cls-32" d="M210.48,252.61H132.74L178.56,321h31.92l3.05,52.73,87.88,131.48V252.81ZM284,446.09l-52-76-3-67H194l-21-28H284Z" transform="translate(-43.92 105.25)"/><path class="cls-16" d="M440.15,283c-1.81-3.38-4.62-4.24-8-2.43,3.38-1.81,4.24-4.62,2.43-8,1.81,3.38,4.62,4.24,8,2.43C439.2,276.79,438.34,279.6,440.15,283Z" transform="translate(-43.92 105.25)"/><g class="cls-33"><g class="cls-34"><use transform="translate(301.34 501.45) rotate(180) scale(0.1 0.25)" xlink:href="#image"/></g></g></g></g></svg>