<?xml version="1.0" encoding="utf-8"?>
<!-- Generator: Adobe Illustrator 21.0.0, SVG Export Plug-In . SVG Version: 6.00 Build 0)  -->
<svg version="1.1" id="Layer_1" xmlns="http://www.w3.org/2000/svg" xmlns:xlink="http://www.w3.org/1999/xlink" x="0px" y="0px"
	 viewBox="0 0 63.3 63.3" style="enable-background:new 0 0 63.3 63.3;" xml:space="preserve">
<style type="text/css">
	.st0{fill:#FFFFFF;}
</style>
<title>black</title>
<path class="st0" d="M31.7,63.3C14.2,63.3,0,49.1,0,31.6S14.2,0,31.7,0c17.5,0,31.7,14.2,31.7,31.6C63.4,49.1,49.2,63.3,31.7,63.3z
	 M62.6,31.6c0-17.1-13.8-30.9-30.9-30.9S0.7,14.5,0.7,31.6c0,17.1,13.8,30.9,30.9,30.9C48.7,62.6,62.6,48.8,62.6,31.6
	C62.6,31.7,62.6,31.7,62.6,31.6L62.6,31.6z"/>
<path class="st0" d="M7,31.7C7,18,18,7,31.7,7S56.4,18,56.4,31.7c0,13.6-11,24.7-24.7,24.7C18.1,56.4,7,45.3,7,31.7
	C7,31.7,7,31.7,7,31.7z M31.7,55.7c13.3,0,24-10.7,24-24s-10.7-24-24-24s-24,10.7-24,24C7.7,44.9,18.4,55.7,31.7,55.7L31.7,55.7z"/>
<path class="st0" d="M29.5,5l-1,0.6c-0.4,0.2-0.4,0.2-0.8-0.1l1.7-0.9c-0.5-0.2-1.1-0.1-1.6,0.1l-0.4-0.4C28,4,28.7,4,29.4,4.3
	l-0.1-0.7l-2.9,0.3l0.5,2.2c-0.5,0.1-0.7,0-0.8-0.5l-0.3-1.5l-1.1,0.3l0.6,2.2c-0.7,0-0.7,0-0.8-0.6L24,4.6l-1.1,0.3L23.7,7
	c-0.4,0-0.7,0.1-0.8-0.3c-1.1,0.6-1.6,0.6-2.4-0.2c0.2-0.1,0.4-0.2,0.6-0.4c0.1-0.1,0.2-0.2,0.2-0.3c-0.2,0-0.3-0.2-0.4-0.1
	C20.4,5.8,20,6,19.5,6.2l1,2c-0.6,0.2-0.6,0.1-0.9-0.3l-0.7-1.4c-0.3,0.1-0.5,0.2-0.8,0.4c-0.2,0.2-0.5,0.2-0.8,0
	c2.6-1.5,5.5-2.6,8.5-3.2l-0.1-0.2c-0.2-0.3-0.1-0.6,0.1-0.8c0,0,0.1-0.1,0.2-0.1c0.6-0.2,1.2-0.3,1.8-0.2c0.3,0,0.5,0.1,0.7,0.2
	v0.1h-0.3c-0.5,0-1,0.1-1.6,0.1c-0.4,0.1-0.6,0.4-0.5,0.8c0,0,0,0,0,0c3.1-0.6,6.2-0.7,9.3-0.2c0-0.4-0.2-0.7-0.5-0.8
	c-0.3-0.2-0.7-0.1-1,0.1c-0.1,0.1-0.3,0.1-0.4,0.1c0,0-0.2-0.2-0.2-0.2c0-0.2,0.1-0.3,0.2-0.4c0.6-0.3,2,0,2.1,1
	c0,0.2,0.1,0.3,0.3,0.3s0.4,0.1,0.5,0.4l-0.7,0L35.7,6c-0.6-0.2-0.6-0.3-0.5-0.9s0.1-1,0.2-1.4c-0.1,0-0.3,0-0.4-0.1
	c-0.1-0.1-0.2-0.1-0.3-0.2c-0.5,0.2-1,0-1.5,0.1v0.6c0.2,0,0.4,0,0.6,0c0.4,0,0.7,0.3,0.7,0.7c0,0,0,0.1,0,0.1
	c-0.1,0.4-0.3,0.5-0.8,0.3c0.1-0.1,0.2-0.3,0.3-0.4c0-0.1,0-0.2,0-0.3C33.6,4.3,33,4.6,33,4.9s0,0.5,0,0.9l-0.7-0.2V4.9
	C32,5,31.7,5,31.4,5c-0.4,0-0.6-0.3-0.6-0.5c0-0.3,0.3-0.5,0.6-0.5c0.3,0,0.7,0.1,1,0.1V3.5H30l0.3,2.2C29.8,5.7,29.7,5.6,29.5,5z
	 M21.3,5.4c0.1,0,0.2,0.1,0.3,0.1c0.1,0.1,0.3,0.2,0.3,0.3s-0.2,0.3-0.3,0.4s-0.3,0.2-0.4,0.4c0.1,0.1,0.1,0.1,0.2,0.1
	c0.5,0,0.9-0.2,1.2-0.6c0-0.1,0-0.1,0-0.2c-0.1-0.3-0.2-0.6-0.3-0.9L21.3,5.4z M32.4,4.5V4.3c-0.3,0-0.6,0-0.9,0
	c-0.1,0-0.1,0.2-0.2,0.3c0.1,0,0.2,0.2,0.3,0.1C31.8,4.7,32.1,4.6,32.4,4.5L32.4,4.5z"/>
<path class="st0" d="M59.4,24.8c-0.1-0.1-0.2-0.1-0.3-0.2c-0.1-0.3-0.3-0.7-0.4-1c0,0,0-0.1-0.1-0.1l-0.6,0.2
	c0.1,0.3,0.1,0.6,0.2,0.9c0,0.2-0.2,0.4-0.4,0.5c-0.2,0.1-0.4,0.1-0.6,0c-0.1,0-0.1-0.3-0.2-0.5c0.2,0.1,0.4,0.1,0.5,0.1
	c0.1,0,0.3,0,0.3-0.1c0-0.1,0-0.2,0-0.3c-0.1-0.3-0.4-0.4-0.7-0.4c0,0-0.1,0-0.1,0l-0.7,0.2c0-0.3-0.1-0.5,0-0.7s0.4-0.2,0.6-0.3
	c-0.1-0.2-0.2-0.4-0.3-0.6c-0.1-0.2-0.1-0.4-0.1-0.6c0-0.2,0.2-0.4,0.4-0.4c0.1,0,0.2,0,0.3,0.1c0.3,0.2,0.5,0.6,0.5,1
	c0,0.1,0,0.2,0,0.4l0.6-0.2l-0.8-2.4l-2.1,1c-0.1-0.6-0.1-0.6,0.4-0.9l1.3-0.7L57,19.1l-1.1,0.5c-0.2,0.1-0.4,0-0.4-0.2
	c0-0.4,0-0.7,0.1-1h0.1l0.3,0.5l0.7-0.3l-0.8-1.4L54,18.3c-0.3-0.5-0.2-0.6,0.2-0.9l1.3-0.8l-0.6-1l-1.8,1.3c-0.3-0.6-0.3-0.6,0.2-1
	l1.2-0.9l-0.6-1l-1.7,1.5c0,0-0.1,0-0.1-0.1c-0.1-0.4-0.3-0.7-0.7-0.9c-0.4-0.3-0.7-0.7-0.8-1.1c-0.2-0.5,0-0.7,0.5-0.7
	c0,0,0,0,0-0.1c0-0.3,0-0.5,0.3-0.6s0.4,0.1,0.6,0.3l0.4,0.4c0.2-0.1,0.3-0.2,0.1-0.3s-0.4-0.5-0.7-0.8c-0.2-0.2-0.2-0.5-0.1-0.7
	l3.3,3.9c0.3-0.6,0.2-1.4-0.2-1.9l0.2-0.5c0.3,0.1,0.4,0.4,0.4,0.7c0,0.5-0.1,1.1-0.2,1.6c-0.1,0.3,0,0.5,0.1,0.8
	c0.2,0.3,0.4,0.6,0.5,0.9c0.6-0.5,1-0.5,1.4,0.2c0.4,0.6,0.6,1.3,0.6,2h-0.1c0-0.1-0.1-0.2-0.1-0.3c-0.2-0.4-0.4-0.9-0.6-1.3
	c-0.2-0.3-0.6-0.5-0.9-0.3c0,0,0,0,0,0c0.3,0.5,0.6,1,0.8,1.6s0.7,1.3,1,2c0.1,0.2,0.1,0.4,0.2,0.5s0.2,0.2,0.2,0.3
	c0.4,1.1,0.8,2.2,1.2,3.4C59.4,24.5,59.4,24.6,59.4,24.8L59.4,24.8z M51.5,12.6l-0.1,0.1l0.3,0.4c0.1,0.1,0.2,0.3,0.3,0.5
	c0,0.1,0,0.2-0.1,0.4c-0.1,0-0.2-0.1-0.3-0.1c-0.1-0.1-0.2-0.3-0.4-0.4c-0.1-0.1-0.2-0.1-0.4-0.1c0,0.1,0,0.3,0.1,0.4
	c0.4,0.3,0.8,0.6,1.2,0.9c0.1,0,0.2,0,0.3,0c0.3-0.3,0.7-0.6,1-0.9L53,13.2c0,0-0.1,0.1-0.1,0.1c-0.5,0.5-0.4,0.3-0.8-0.1
	C51.9,13,51.7,12.8,51.5,12.6L51.5,12.6z M57.5,23.1l0.2-0.1c-0.1-0.3-0.1-0.5-0.2-0.8c0-0.1-0.2-0.1-0.4-0.1c0,0.1-0.1,0.3-0.1,0.3
	C57.1,22.7,57.3,22.9,57.5,23.1L57.5,23.1z"/>
<path class="st0" d="M59.7,36.3c0.2,0.6,0.1,1.2-0.3,1.6c-0.4,0.5-0.9,0.4-1.1-0.2c-0.1-0.4-0.2-0.7-0.3-1.1
	c-0.3,0.4-0.4,0.9-0.3,1.4c0.1,0.7,0.6,0.8,1.2,0.9c0.1-0.3,0.1-0.7,0.6-0.8c-0.1,0.3-0.1,0.5-0.2,0.7c-0.1,0.5-0.3,0.9-0.4,1.4
	c-0.5,1.6-1.2,3.1-1.9,4.6c-0.1,0.1-0.3,0.2-0.4,0.4l-0.1-0.1l0.2-0.6l-2-0.9c0.3-0.7,0.8-0.4,1.3-0.1l0.4-1
	c-0.3-0.3-0.3-0.4,0.1-0.6c0.2-0.1,0.4-0.2,0.6-0.2c0,0.2-0.1,0.4-0.2,0.7c-0.2,0.4-0.4,0.8-0.6,1.3l0.7,0.3l1.2-2.7l-2.2-0.7
	c0.4-0.6,0.4-0.6,1-0.4l1.4,0.5l0.3-1L56.7,39c0.3-0.5,0.3-0.5,0.8-0.5c-0.2-0.9,0.1-1.9,0.9-2.4c0.1-0.1,0.1-0.2,0.1-0.3
	c0-0.2,0-0.4,0.1-0.6c0.2-0.3,0-0.5-0.2-0.7l-0.8,0.9h-0.1c0-0.1,0-0.2,0.1-0.3c0.4-0.4,0.7-0.9,1.1-1.3c0.1-0.1,0.2-0.1,0.4-0.2
	c0,0.1,0.1,0.3,0.1,0.4c0,0.1,0,0.2,0,0.3h0.8l0.2-1.9h-2.4c0.1-0.6,0.1-0.6,0.9-0.7c0-0.4,0.1-0.9,0.1-1.3c0-0.1-0.2-0.3-0.3-0.4
	l-0.7,1h-0.1c0-0.1,0-0.2,0.1-0.3c0.3-0.4,0.6-0.9,0.9-1.3c0.1-0.1,0.3-0.2,0.4-0.3c0,0.2,0.1,0.3,0.1,0.5c0,0.1,0,0.1,0,0.2h0.7
	c0.2-0.4-0.3-1,0.4-1.4c0.2,2.6,0.2,5.2-0.2,7.8L59.7,36.3l0.2-1.3c-0.3,0-0.7-0.1-0.9,0.1c-0.3,0.3-0.2,0.7,0,1.1h-0.5l0.2,0.6
	C58.9,36.5,59.1,36.1,59.7,36.3z M59.9,30.5c-0.3,0-0.6,0.1-0.9,0.2c-0.2,0.1-0.1,0.9,0.2,1c0.3,0.1,0.5,0.1,0.8,0.1L59.9,30.5z
	 M59.5,37.3c-0.1-0.3-0.2-0.5-0.4-0.5s-0.5,0.1-0.4,0.4c0.1,0.2,0.2,0.4,0.4,0.4C59.2,37.7,59.4,37.5,59.5,37.3z"/>
<path class="st0" d="M32.7,60.9c-0.7-0.1-0.5-0.6-0.5-0.9l-1.2-0.1L30.8,60l0.8,0.7l-0.1,0.1c-0.1,0-0.2,0-0.3-0.1
	c-0.4-0.3-0.7-0.7-1.1-1c-0.1-0.1-0.1-0.2-0.2-0.4l0.4-0.1c0.1,0,0.1,0,0.2,0v-0.8h-1.2l-0.3,2.2c-0.5-0.2-0.5-0.2-0.4-0.9l-1-0.1
	L27.5,60l-0.7-0.8l0.4-0.1l0.1-0.9l-0.7-0.3c-0.4,0.4-0.8-0.2-1.3-0.1l-0.2,0.6c0.6,0.1,0.8,0.3,0.9,0.6c0.1,0.3-0.1,0.6-0.3,0.7
	c-0.1,0-0.3-0.1-0.5-0.1c0.2-0.2,0.3-0.3,0.5-0.5c0.1-0.2,0.1-0.3-0.2-0.4c-0.3-0.1-0.5,0.1-0.6,0.3c0,0,0,0.1,0,0.1L24.6,60
	c-0.5-0.2-0.5-0.2-0.3-1c-0.5,0-0.9,0-1.1-0.5c-0.1-0.2,0-0.5,0.3-0.5c0.3-0.2,0.7-0.1,1.1,0.3l0.2-0.7c-0.4-0.1-0.7-0.2-1-0.3
	s-0.4-0.2-0.4-0.6c1.7,0.6,3.6,1,5.4,1.1c-0.4-0.9-0.4-1.2,0-1.3s0.8,0,1,0.6l-0.3-0.2c-0.1,0-0.3-0.1-0.3-0.1
	c-0.1,0.1-0.2,0.2-0.2,0.4c0,0.5,0.2,0.7,0.7,0.7c1.1,0,2.2,0.1,3.2,0.1c0.2,0,0.5,0.1,0.5,0.4c0,0,0,0,0,0h-0.5L32.7,60.9z
	 M27.7,59.3l1,0.1l0.1-1l-1-0.1L27.7,59.3z M31.2,58.5c0,0.2,0,0.4,0,0.6c0,0.1,0,0.2,0.1,0.3c0.3,0.2,0.6,0.1,0.8-0.1
	c0.1-0.2,0.1-0.5,0.1-0.7c0,0-0.1-0.1-0.2-0.1H31.2z M24.5,58.7v-0.2c-0.2-0.1-0.4-0.2-0.7-0.2c-0.1,0-0.2,0.2-0.3,0.3
	c0.1,0.1,0.2,0.2,0.2,0.2C24,58.7,24.3,58.7,24.5,58.7L24.5,58.7z"/>
<path class="st0" d="M38.4,56.3c0.3-0.2,0.6-0.1,0.9,0s0.5,0.3,0.8,0.4c-0.1-0.4-0.5-0.7-1-0.8c-0.1,0-0.3-0.1-0.4-0.2
	c0-0.1,0-0.1,0-0.2c0.1,0,0.3-0.1,0.4,0c0.3,0.2,0.6,0.5,0.9,0.7c0.1,0.1,0.2,0.2,0.3,0.4c1-0.3,2.1-0.7,3-1.2
	c1.5-0.8,3-1.7,4.4-2.6c0.2-0.2,0.3-0.1,0.6,0.1l-0.5,0.3l1.2,1.9c-0.4,0.2-0.6,0.1-0.8-0.2c-0.1-0.1-0.2-0.3-0.3-0.4
	s-0.3-0.2-0.4,0c-0.1,0.1-0.1,0.3-0.2,0.4c-0.1,0.4-0.1,0.4-0.4,0.4l-0.4-0.4c-0.1,0.1-0.3,0.3-0.3,0.5c0,0.2,0.1,0.4,0.2,0.5
	c0.3,0.1,0.7,0.2,1.1,0.3c-0.2,0.1-0.2,0.1-0.3,0.1c-0.3,0-0.7-0.1-1-0.2c-0.3-0.1-0.6-0.4-0.6-0.8c0.1-0.3,0.4-0.6,0.7-0.7
	c0.1,0,0.3,0,0.4-0.1l0.9-0.7l-0.3-0.4l-2.9,1.9l1,2c-0.3,0.1-0.6,0-0.8-0.2c0,0,0-0.1,0-0.1c-0.2-0.5-0.5-1-0.8-1.5l-1.2,0.7
	c1,0.6,0.5,1.3,0.1,2l0.6,0.5v0.1c-0.1,0-0.2,0-0.3,0c-0.1,0-0.2-0.2-0.4-0.2c-0.1,0-0.3-0.1-0.5-0.1c-0.2,0-0.3-0.1-0.5-0.1
	c-0.1-0.1-0.1-0.2-0.1-0.4c0.1-0.1,0.2-0.1,0.4-0.1c0.3,0,0.4,0,0.5-0.4c-0.5,0-1.2,0.2-1.2-0.7L40.6,57l0.7,2.1
	c-0.5,0.1-0.5,0-0.7-0.4l-0.5-1.4l-0.8-0.1v-0.1l0.3-0.2v-0.1c-0.2-0.1-0.4-0.1-0.7-0.1C38.7,56.8,38.6,56.6,38.4,56.3z M42.8,57
	c0-0.4-0.3-0.7-0.5-0.7c-0.1,0.1-0.3,0.2-0.3,0.3c0,0.2,0.3,0.5,0.6,0.5C42.7,57.2,42.8,57.1,42.8,57L42.8,57z"/>
<path class="st0" d="M9.2,14.5l1.9,1.2c-0.5,0.4-0.5,0.4-1,0.1l-0.6-0.4c-0.1,0.3-0.1,0.6-0.1,0.8c0.1,0.3,0,0.6-0.3,0.8l-0.5-0.2
	c-0.1,0.2-0.2,0.5-0.2,0.7c0,0.1,0.3,0.3,0.4,0.3c0.2,0,0.4-0.1,0.6-0.2c0.1-0.1,0.3-0.1,0.4-0.1c0,0.1-0.1,0.2-0.2,0.2
	c-0.4,0.2-0.8,0.3-1.2,0.4c-0.7,0.1-1-0.4-0.6-1c0.3-0.4,0.5-0.7,0.9-1c0-0.3,0.3-0.6,0.6-1l-0.5-0.3l-2.1,3.4l2.1,1.1
	c-0.4,0.5-0.4,0.5-1,0.2l-1.3-0.7L5.9,20l2.1,0.9c-0.3,0.2-0.4,0.6-0.8,0.4c0.1,0.6-0.2,1.2-0.8,1.6c-0.5,0.4-0.9,0.2-1-0.5
	c0-0.6,0.3-1.2,0.8-1.5l-0.6-0.3c-0.2,0.6-0.5,1.2-0.7,1.8c-0.1,0.3-0.3,0.4-0.6,0.4c0.1-0.3,0.2-0.6,0.3-0.8c0.6-1.3,1.1-2.7,1.8-4
	s1.6-2.7,2.5-4c0.1-0.1,0.3-0.1,0.5-0.2v0.1L9.2,14.5z M6.7,21.7L6.7,21.7c0-0.1,0-0.3,0-0.4c0-0.1-0.1-0.1-0.2-0.1
	c-0.4,0.3-0.5,0.7-0.4,1.2c0.1,0.1,0.2,0.2,0.3,0.2c0.1,0,0.2-0.1,0.2-0.2C6.6,22.2,6.7,21.9,6.7,21.7z"/>
<path class="st0" d="M4.1,32.9c-0.2-0.3-0.1-0.7,0-1.1H3.5c0,0.1,0,0.3,0,0.4c0,0.9,0,1.7,0,2.5c0,0.3-0.1,0.5-0.4,0.6V30
	c-0.3,0.2-0.5,0.5-0.6,0.8c0,0.3-0.2,0.5-0.6,0.5c0-0.8,0.7-1.1,1.2-1.6c-0.4,0-0.8,0.2-1,0.6c0,0.3-0.3,0.4-0.5,0.4
	c-0.2-0.4-0.1-0.6,0.7-1.1H2.2L2.5,29c0.1,0.1,0.1,0.2,0.2,0.3c0.1,0.1,0.2,0.2,0.3,0.2c0.1-0.1,0.1-0.2,0.2-0.4
	c0-0.3,0.1-0.5,0.4-0.6v0.6l2.2,0.2C5.7,30,5.6,30.1,5.1,30l-1.5-0.1l-0.1,1.2h2.3c-0.1,0.6-0.1,0.6-0.7,0.6H4.8
	c-0.5,0-0.6,0.2-0.3,0.6c0,0.1,0.1,0.1,0.1,0.2c0.3,0.2,0.3,0.5,0.2,0.8c-0.1,0.1-0.4-0.2-0.5,0.1c-0.1,0.3,0.1,0.6,0.3,0.7
	c0.3,0.2,0.5,0,0.6-0.2s0.3-0.5,0.5-0.8c0,0.2,0.1,0.3,0,0.4c-0.2,0.4-0.5,0.8-0.9,1.1c-0.5,0.4-1,0.1-1-0.5
	C3.9,33.8,4,33.3,4.1,32.9z"/>
<path class="st0" d="M15.1,8.3C15.6,8,15.6,8,16,8.2l-0.5,0.4l1.3,1.8c-0.6,0.3-0.6,0.2-1-0.2L14.9,9l-1.1,0.7l1.6,1.7
	c-0.5,0.4-0.8,0.2-1.1-0.2l-0.5,0.4c0.1,0.2,0.1,0.3,0.2,0.5c0,0.2-0.1,0.4-0.2,0.6c-0.4,0.5-1.1,0.8-1.7,0.7h-0.5v-0.1
	c0.1-0.1,0.2-0.1,0.3-0.1c0.3,0,0.6,0,0.9-0.1c0.3-0.1,0.6-0.4,0.6-0.7c0-0.1,0-0.2-0.1-0.3c-0.1-0.1-0.2-0.1-0.4,0
	c-0.2,0.1-0.3,0.2-0.4,0.4c-0.2,0.3-0.4,0.4-0.8,0.1c0.1-0.1,0.3-0.3,0.4-0.4c0.1-0.2,0.2-0.3,0.3-0.5c0-0.1,0-0.2-0.1-0.2
	c-0.1,0-0.2,0-0.2,0c-0.2,0.2-0.4,0.4-0.5,0.6c-0.1,0.2-0.4,0.4-0.6,0.3c0,0-0.1,0-0.1-0.1c0.3-0.6,0.8-1,1.5-1.1
	c0.5-0.1,0.7,0.1,0.7,0.6c0.4-0.2,0.8-0.4,0.8-0.8c0-0.2-0.3-0.4-0.4-0.7c-0.3,0.2-0.5,0.5-0.9,0.2l2.3-1.9l0,0
	c-0.5-0.4-0.5-0.8,0-1.2c0.6-0.5,1.4-0.8,2.2-0.8l-0.4,0.2c-0.5,0.2-0.9,0.4-1.4,0.6C15,7.5,14.9,7.9,15.1,8.3
	C15.1,8.3,15.1,8.3,15.1,8.3z"/>
<path class="st0" d="M50.6,8.8L51,8.5c0.1,0.1,0.3,0.3,0.3,0.5c0,0.4-0.1,0.9-0.2,1.3c0,0.1-0.1,0.3,0.1,0.4
	c0.1,0.2,0.2,0.3,0.3,0.5l-0.2,0.1l-0.5-0.4l-1.5,1.7c-0.4-0.6-0.4-0.6,0-1l0.9-1.1l-0.9-0.9L48,11.6l-0.4-0.8l-1.2-0.4
	C46,10.2,46,10.2,46,9.7l1,0.3c-0.7-0.7-0.2-1.3,0.2-1.7l-0.4-0.7l0.1-0.1c1.2,0.8,2.4,1.7,3.6,2.7c0.1-0.3,0-0.7-0.3-0.9
	C50,9,50,8.8,50.2,8.5c0.6,0.5,0.5,1.2,0.6,1.9C51.1,9.9,51.1,9.4,50.6,8.8z M48.9,9.2l-1.1-0.8c-0.2,0.3-0.4,0.6-0.6,0.9
	c0,0.1,0,0.3,0.1,0.3c0.3,0.2,0.6,0.2,1,0.3c0.1,0,0.3-0.3,0.4-0.5C48.7,9.4,48.8,9.3,48.9,9.2z"/>
<path class="st0" d="M3.1,28.5l1-4.7c-0.6,0.3-1.2,0.6-1.4,1.3c0,0.1-0.3,0.2-0.5,0.3c-0.1-0.3,0-0.7,0.3-0.9
	C3,24.3,3.4,24,3.9,23.8c0.2-0.1,0.3-0.2,0.4-0.4c0-0.2,0.3-0.3,0.4-0.4L4.8,23l-0.1,0.6l2.2,0.6c-0.4,0.6-0.4,0.6-0.9,0.4l-1.4-0.4
	l-0.2,1.1l2.2,0.5c-0.3,0.6-0.3,0.6-0.9,0.5L4.1,26l-0.2,0.9L5,27.1c0.4,0.1,0.4,0.3,0.2,0.5s-0.4,0.4-0.7,0.7v-0.7l-0.7-0.1
	C3.6,27.9,3.8,28.4,3.1,28.5z"/>
<path class="st0" d="M55.5,50c-0.4-0.3-0.8-0.6-1.2-0.9c-0.1-0.1-0.2-0.1-0.4,0c-0.4,0.2-0.7,0.5-1.2,0.9c0.2-0.5,0.3-0.9,0.4-1.4
	c0.1-0.1,0-0.3-0.1-0.4c0,0,0,0,0,0c-0.4-0.3-0.7-0.5-1-0.8c0.4,0,0.9,0,1.3,0c0.2,0,0.3-0.1,0.4-0.3c0,0,0,0,0,0
	c0.1-0.4,0.3-0.8,0.4-1.3c0.2,0.5,0.3,0.9,0.4,1.3c0,0.2,0.2,0.3,0.4,0.3c0,0,0,0,0,0c0.4,0,0.9,0,1.3,0.1c-0.3,0.2-0.7,0.5-1,0.7
	c-0.2,0.1-0.3,0.3-0.2,0.5c0,0,0,0,0,0C55.3,49.1,55.3,49.5,55.5,50z"/>
<path class="st0" d="M10.6,49.9L9.3,49l-1.4,1c0.1-0.5,0.3-0.9,0.4-1.3c0.1-0.2,0.1-0.4-0.1-0.5c0,0,0,0,0,0c-0.4-0.2-0.7-0.5-1-0.8
	c0.4,0,0.9,0,1.3,0c0.2,0,0.4-0.1,0.4-0.3c0,0,0,0,0,0c0.1-0.4,0.3-0.8,0.4-1.3c0.2,0.5,0.3,0.9,0.5,1.4c0,0.2,0.2,0.3,0.3,0.2
	c0,0,0,0,0,0c0.5,0,0.9,0,1.4,0.1c-0.3,0.3-0.7,0.5-1,0.7c-0.2,0.1-0.3,0.3-0.2,0.5c0,0,0,0,0,0C10.4,49.1,10.5,49.5,10.6,49.9
	L10.6,49.9z"/>
<path class="st0" d="M17,54.2l-0.9-0.5l-1.4,1.8c-0.2-0.3-0.3-0.5,0-0.9s0.6-0.9,1-1.3c-0.3-0.2-0.5-0.3-0.3-0.7l0.6,0.4
	c-0.1-0.6,0-1.2-0.6-1.6c-0.1-0.1,0-0.3-0.1-0.5c0.3,0,0.6,0.2,0.6,0.5c0.1,0.5,0.1,1,0.2,1.5c0,0.2,0.1,0.3,0.2,0.4
	c0.8,0.5,1.6,1,2.4,1.5c0.2,0.1,0.4,0.4,0.3,0.6c0,0,0,0,0,0l-0.5-0.3l-1.2,1.9c-0.4-0.3-0.4-0.4-0.1-0.8l0.8-1.3c0,0,0-0.1,0-0.1
	l-0.6-0.4c-0.2,0.4-0.5,0.7-0.7,1s-0.4,0.3-0.5,0s-0.2-0.5-0.3-0.9l0.5,0.2L17,54.2z"/>
<path class="st0" d="M4.7,40.8c0.1,0.1,0.2,0.1,0.2,0.2c0.1,0.1,0.1,0.2,0.2,0.4l2.1-0.9c0.2,0.6,0,0.9-0.6,0.9
	c0.1,0.5,0.3,0.9,0.4,1.3c0,0.1,0.2,0.2,0.4,0.3l0.3-1.1h0.1c0,0.1,0.1,0.2,0.1,0.4c-0.1,0.5-0.2,1.1-0.4,1.6c0,0.1-0.2,0.2-0.3,0.3
	C7.1,44,7,43.8,6.9,43.7c0-0.1-0.1-0.2-0.1-0.3l-0.7,0.3c0,0.5,0.6,0.9,0.2,1.4c0-0.1-0.1-0.1-0.1-0.2c-0.5-1.1-1-2.2-1.5-3.3
	C4.5,41.4,4.5,41.1,4.7,40.8L4.7,40.8z M5.9,43.2c0.3-0.1,0.5-0.3,0.8-0.5c0.1-0.2-0.2-0.8-0.5-0.9c-0.3,0-0.6,0-0.8,0.1L5.9,43.2z"
	/>
<path class="st0" d="M38.2,3.8L40,4.3c0.4,0.1,0.9,0.3,1.3,0.4c0.3,0,0.4,0.3,0.4,0.5L41.1,5l-0.3,1c-0.1,0.5-0.3,0.6-0.8,0.3
	c-0.2-0.1-0.4-0.2-0.5-0.4l0.1-0.1c0.1,0,0.2,0,0.3,0c0.1,0,0.3-0.1,0.3-0.2c0.1-0.3,0.2-0.6,0.3-1l-1-0.3c-0.1,0.5-0.3,0.9-0.3,1.3
	c0,0.1,0.1,0.3,0.2,0.4C39.9,6.6,40.4,7,41,7.4c0.2,0.1,0.3,0.3,0.1,0.5s-0.3,0.2-0.4,0.1s-0.3-0.1-0.2-0.4c0-0.1-0.1-0.3-0.2-0.4
	c-0.5-0.4-1.1-0.8-1.6-1.2c-0.2-0.1-0.3-0.4-0.2-0.6c0.1-0.4,0.2-0.8,0.3-1.2C38.5,4.3,38.2,4.2,38.2,3.8z"/>
<path class="st0" d="M45.3,6.8l-0.6-0.3l-0.9,2.1c-0.2-0.3-0.6-0.4-0.3-0.8c-0.6,0.1-1.2-0.3-1.5-0.8c-0.1-0.2-0.1-0.4-0.1-0.6
	C41.9,6.1,42.2,6,42.4,6c0.6,0,1.2,0.3,1.4,0.9l0.3-0.6c-0.6-0.3-1.2-0.5-1.7-0.8c-0.3-0.1-0.4-0.3-0.4-0.6c1.1,0.5,2.1,0.9,3.1,1.4
	C45.2,6.3,45.3,6.6,45.3,6.8L45.3,6.8z M43.6,7.3c-0.2-0.5-0.7-0.8-1.2-0.7c-0.1,0.1-0.2,0.2-0.3,0.3c0,0,0.1,0.2,0.2,0.2
	C42.7,7.2,43.1,7.2,43.6,7.3L43.6,7.3z"/>
<path class="st0" d="M4.7,40.8c-0.1,0-0.2-0.1-0.2-0.1c-0.3-1-0.6-2.1-0.8-3.2c0-0.1,0.1-0.3,0.2-0.5h0.1l0.2,0.6L6.2,37
	c0,0.7,0,0.7-0.5,0.8L5,38c0.1,0.4,0.2,0.8,0.3,1.1s0.4,0.4,0.7,0.1c0.1-0.1,0.2-0.2,0.3-0.3c0.1-0.1,0.2-0.2,0.3-0.3
	c0,0.1,0.1,0.2,0,0.3c-0.2,0.3-0.4,0.7-0.6,1c-0.3,0.3-0.7,0.3-0.9-0.1C5,39.4,4.9,39,4.8,38.6l-0.1-0.5l-0.4,0.1
	c0.1,0.6,0.3,1.1,0.5,1.7C4.8,40.2,4.8,40.5,4.7,40.8L4.7,40.8z"/>
<path class="st0" d="M38.9,59.5c0.1-0.2,0.1-0.4,0.2-0.6c0-0.3-0.1-0.4-0.3-0.3s-0.5,0.3-0.3,0.7c0.1,0.2,0.1,0.5,0.2,0.8H38
	l-0.2-0.7c-0.4,0.3-0.8,0.5-1.2,0.1c-0.2-0.1-0.2-0.4-0.1-0.6c0,0,0,0,0,0c0.2-0.3,0.5-0.4,1.2-0.3L37.5,58c-0.6-0.1-1.1,0.5-1.7,0
	l3.3-0.8l0.1,0.4l-1.2,0.3l0.1,0.6c0.2,0,0.5-0.1,0.8-0.1c0.2,0,0.3,0.1,0.4,0.3c0.1,0.3,0.1,0.5,0.1,0.8
	C39.4,59.4,39.1,59.5,38.9,59.5z M37.8,59l-0.1-0.2c-0.2,0-0.5,0.1-0.7,0.1c-0.1,0-0.1,0.2-0.1,0.4c0.1,0,0.3,0.1,0.3,0.1
	C37.4,59.2,37.6,59.1,37.8,59L37.8,59z"/>
<path class="st0" d="M52,52.7c-0.3,0.2-0.8,0-0.9-0.4c0,0,0,0,0,0L50.3,53c0.2,0.4,0.2,0.4-0.3,0.4h-0.7l0.2-0.4l-0.6-0.7
	c-0.3,0.2-0.5,0.5-0.9,0.2c0.7-0.7,1.5-1.3,2.2-2c0.2-0.2,0.4-0.2,0.7,0l-0.5,0.3c0.5,0.5,0.9,1,1.3,1.5
	C51.8,52.5,51.9,52.6,52,52.7L52,52.7z M50,52.7l0.8-0.7L50,51.3L49.3,52L50,52.7z"/>
<path class="st0" d="M13,50.5c0.8,0.7,1.5,1.3,2.2,2c0.1,0.1,0.1,0.3,0.1,0.5h-0.1l-0.4-0.3l-1.5,1.7C13,54,13,53.9,13.2,53.5
	c-0.7-0.2-1-1-0.8-1.7c0-0.1,0.1-0.2,0.1-0.3c0.2,0.1,0.3,0.2,0.5,0.2c0.1,0,0.2,0,0.3,0c0-0.1,0-0.3,0-0.4
	c-0.1-0.1-0.2-0.2-0.3-0.3C12.9,51,12.8,50.8,13,50.5C12.9,50.5,13,50.5,13,50.5z M14.4,52.2l-0.7-0.6c0,0.8,0,0.9-0.8,0.6h-0.1
	c-0.2,0-0.3,0.1-0.2,0.2c0.2,0.2,0.5,0.4,0.8,0.5c0.1,0,0.3-0.1,0.4-0.3C14.1,52.6,14.2,52.4,14.4,52.2L14.4,52.2z"/>
<path class="st0" d="M59.4,24.8c0.1,0.2,0.2,0.4,0.2,0.5s0.1,0.3,0.1,0.4c0.3-0.1,0.6-0.4,0.6-0.7c0-0.4-0.1-0.7-0.4-0.9
	c-0.1-0.1-0.2-0.2-0.2-0.3c0,0,0.1-0.2,0.2-0.2c0.1,0,0.3,0,0.4,0.1c0.6,0.5,0.6,2-0.3,2.3L59.7,26c0,0.3,0.3,0.7-0.2,0.9l-0.2-0.6
	l-2.2,0.5c0-0.7,0-0.7,0.6-0.8l1.3-0.3L59.4,24.8L59.4,24.8z"/>
<path class="st0" d="M17.2,8.7l0.5-0.4V8.2h-0.3c-0.3,0.1-0.5,0.1-0.8,0.1c-0.4,0-0.5-0.3-0.3-0.6c0.3-0.4,0.7-0.6,1.2-0.5
	c0.2,0.1,0.3,0.2,0.4,0.3c0.1,0.2,0.3,0.4,0.4,0.5l0.5-0.3l0.5-0.3l0.2,0.3L18.9,8l-0.5,0.3c0.1,0.5,0,0.6-0.5,0.5L17.2,8.7
	L17.2,8.7z M17,7.3c-0.3,0.1-0.4,0.3-0.3,0.5c0.2,0.2,0.4,0.2,0.6,0L17,7.3z"/>
<path class="st0" d="M30.4,61.3l0.3,0.1c0.3,0.1,0.7,0.2,1,0.3c0.3,0.1,0.6-0.1,0.6-0.4c0,0,0,0,0,0c-0.3-0.2-0.7,0.5-1-0.1
	c0.2-0.3,0.6-0.3,0.9-0.2c0.2,0.1,0.3,0.3,0.4,0.5c0.1,0.3-0.2,0.4-0.4,0.5c-0.7,0.1-1.4-0.1-1.9-0.6L30.4,61.3z"/>
<path class="st0" d="M51.9,52.7c0.6-0.2,1.2-0.3,1.8-0.1c-0.2,0-0.3,0.1-0.5,0.1c-0.4,0-0.8,0.2-1.1,0.5c-0.1,0.1-0.3,0.1-0.5,0.1
	l-0.1-0.1L51.9,52.7L51.9,52.7z"/>
<path class="st0" d="M19.3,56c0.6-0.2,0.7-0.2,0.8,0.4C19.5,56.6,19.5,56.6,19.3,56z"/>
<path class="st0" d="M18.8,57.9l-0.2-0.5c0.6-0.3,0.6-0.2,0.8,0.4L18.8,57.9z"/>
<path class="st0" d="M44.3,5.3c0.6-0.1,0.6-0.1,0.8,0.4C44.5,5.9,44.5,5.9,44.3,5.3z"/>
<path class="st0" d="M4.4,42.3C4,42,4,42,4.1,41.5C4.6,41.7,4.7,41.8,4.4,42.3z"/>
<path class="st0" d="M60.9,31.6l0.3,0.5l-0.3,0.4C60.5,32.1,60.5,32,60.9,31.6z"/>
<path class="st0" d="M23.6,3.5C24,3.1,24,3.1,24.5,3.3C24.2,3.8,24.2,3.8,23.6,3.5z"/>
<path class="st0" d="M13,31.7C13,21.4,21.4,13,31.7,13c10.3,0,18.7,8.3,18.7,18.6c0,10.3-8.3,18.7-18.6,18.7c0,0,0,0,0,0
	C21.4,50.3,13,42,13,31.7z M16.3,40.5L16.3,40.5c0,0.1,0,0.3,0.1,0.4c4.1,6.9,12.4,10.2,20.1,8C46,46.3,51.6,36.5,49,27
	c-1.9-7.1-8-12.2-15.3-13c-0.7-0.1-1.3-0.1-2.1-0.1l1.2,10.5h0.1l4.7-9.1h0.1l-2.3,9.4l-0.9-1.1c-0.4,0.7-0.8,1.3-1.1,1.9
	c-0.1,0.2-0.2,0.3-0.4,0.2c0,0,0,0,0,0c-0.1,0-0.2,0-0.3,0c-0.3,0-0.5-0.2-0.5-0.5c0-0.6,0-1.3-0.1-2c-0.6,0.2-1,0.6-1.7,0.6l1.2-10
	c-0.8,0.1-1.5,0.1-2.2,0.2c-9.8,1.3-16.7,10.2-15.5,20c0.3,2.2,1,4.4,2.1,6.3C16.1,40.4,16.2,40.5,16.3,40.5L16.3,40.5z"/>
<path class="st0" d="M22.8,49.5l-2.3,1.4c-0.3,0.1-0.7-0.1-0.8-0.4c0,0,0-0.1,0-0.1c0-0.7,0-1.4,0-2c0-0.1,0-0.3,0-0.5l-1.4,1.8
	c-0.4-0.1-0.6-0.5-0.6-0.9c0-0.5,0-1.1,0-1.6h-0.1l-1,1.3L16.2,48l1.6-2c0.4,0.1,0.7,0.6,0.6,1c0,0.5,0,1,0.1,1.6l1.1-1.4l0.4,0.6
	c0,0,0,0.1,0.1,0.1c0.3,0.1,0.5,0.4,0.4,0.8c0,0,0,0,0,0.1l1.3,0.8c0,0,0,0,0.1,0C22.1,49,22.4,49.2,22.8,49.5z M20.3,50.3l0.9-0.6
	l-0.8-0.5L20.3,50.3z"/>
<path class="st0" d="M31.4,50.7c0.2,0.5,0.3,0.9,0.4,1.4c0,0.2,0.2,0.3,0.3,0.3c0,0,0,0,0,0c0.4,0,0.9,0,1.4,0
	c-0.4,0.3-0.8,0.6-1.1,0.8c-0.2,0.1-0.2,0.3-0.1,0.4c0,0,0,0,0,0c0.2,0.4,0.3,0.8,0.4,1.3c-0.4-0.3-0.8-0.6-1.2-0.8
	c-0.1-0.1-0.3-0.1-0.4,0c0,0,0,0,0,0c-0.3,0.3-0.7,0.5-1.1,0.7c0.1-0.4,0.2-0.8,0.4-1.2c0.1-0.2,0-0.4-0.1-0.5c0,0,0,0,0,0
	c-0.4-0.2-0.7-0.5-1.1-0.8c0.5,0,1,0,1.4,0c0.2,0,0.3-0.1,0.4-0.3c0,0,0,0,0,0C31.1,51.6,31.2,51.2,31.4,50.7z"/>
<path class="st0" d="M13.2,21.8l-1.3-1.2l0.3-0.6c0.6,0.6,1.2,1.1,1.8,1.7c0.3,0.2,0,0.4,0,0.6c0,0.2-0.2,0.3-0.3,0.2c0,0,0,0,0,0
	c-0.5-0.1-1.1-0.1-1.7-0.1l-0.1,0.1c0.4,0.4,0.8,0.8,1.2,1.1s0.1,0.4,0,0.6c0,0.2-0.2,0.3-0.4,0.2c0,0,0,0,0,0l-2.3-0.3
	c0.1-0.6,0.2-0.7,0.7-0.6l1.2,0.2l0.1-0.1c-0.4-0.3-0.7-0.7-1.1-1s0-0.5,0.1-0.7s0.2-0.2,0.4-0.2C12.3,21.8,12.8,21.8,13.2,21.8
	L13.2,21.8z"/>
<path class="st0" d="M52.2,28l1.6-0.3l0.1,0.6l-2.5,0.5c-0.2-0.3-0.2-0.8,0.1-1.1c0.4-0.4,0.7-0.8,1.1-1.3L51,26.7l-0.1-0.6l2.5-0.5
	c0.2,0.3,0.2,0.7-0.1,1C52.8,27,52.5,27.4,52.2,28L52.2,28z"/>
<path class="st0" d="M21.7,11.6l0.5-0.3l1.3,2.2c-0.3,0.3-0.7,0.4-1.1,0.2c-0.5-0.2-1-0.4-1.5-0.5l0.8,1.3l-0.5,0.3l-1.3-2.2
	c0.2-0.3,0.7-0.4,1-0.2c0.5,0.2,1,0.4,1.6,0.6L21.7,11.6z"/>
<path class="st0" d="M11.8,33.3c0.2,0.4,0.2,0.8-0.2,1.1c-0.4,0.4-0.7,0.8-1.1,1.3l1.6-0.3l0.1,0.6l-2.5,0.4c-0.2-0.3-0.1-0.7,0.1-1
	c0.4-0.4,0.7-0.8,1.1-1.3l-1.7,0.3l-0.1-0.6L11.8,33.3z"/>
<path class="st0" d="M53.4,32.5c-0.1-0.3-0.2-0.5,0.1-0.8c0.3-0.4,0.3-0.9,0-1.3c-0.2-0.3-0.6-0.4-1-0.3c-0.3,0.1-0.5,0.3-0.5,0.6
	c0,0.3,0,0.7,0.1,1c0,0.1,0.2,0.2,0.3,0.2l0.1-0.1v-0.8h0.4l0.1,1.5c-0.3,0-0.6,0-0.9,0c-0.1,0-0.2-0.1-0.2-0.2
	c-0.4-0.7-0.4-1.5-0.2-2.2c0.1-0.5,0.6-0.8,1.1-0.9c0.5-0.1,1,0.2,1.2,0.7c0.3,0.6,0.3,1.3,0.1,1.9c-0.1,0.2-0.3,0.4-0.4,0.6
	L53.4,32.5z"/>
<path class="st0" d="M50.7,40.9c0.3,0.1,0.6,0.1,0.8,0.3s0.1,0.6-0.1,0.9c-0.1,0.2-0.2,0.4-0.4,0.5c-0.2,0.1-0.4,0.2-0.6,0.1
	c-0.1,0-0.2-0.3-0.3-0.5c0-0.1,0-0.2,0-0.4L49.5,42c0.2,0.3,0,0.5-0.2,0.7L49,42.3l-0.5,0.3c-0.2-0.3-0.2-0.5,0.2-0.7
	c0.1-0.1,0.2-0.2,0.2-0.3c0.1-0.5,0.3-0.9,0.6-1.3c0.2-0.3,0.6-0.4,0.9-0.3c0.3,0.1,0.4,0.5,0.4,0.8C50.7,40.8,50.7,40.9,50.7,40.9z
	 M49.3,41.3L49.3,41.3c0.3,0,0.5,0,0.7-0.1c0.1,0,0.2-0.2,0.2-0.3c0-0.2-0.1-0.3-0.2-0.4c-0.1,0-0.3,0-0.4,0.1
	C49.5,40.8,49.4,41.1,49.3,41.3z M50.4,41.8l0.3,0.4c0.1-0.1,0.2-0.3,0.3-0.4c0,0-0.1-0.2-0.2-0.2C50.8,41.6,50.6,41.7,50.4,41.8
	L50.4,41.8z"/>
<path class="st0" d="M52.7,36.8c0-0.3-0.1-0.6,0.2-0.8c0.3-0.3,0.4-0.8,0.3-1.2c-0.1-0.3-0.4-0.6-0.8-0.5c-0.3-0.1-0.7,0.1-0.8,0.5
	c-0.1,0.3-0.1,0.7-0.1,1c0,0.2,0.1,0.3,0.4,0.3l0.2-0.7l0.4,0l-0.3,1.5c-0.3-0.1-0.6-0.1-0.9-0.2c-0.1,0-0.1-0.1-0.2-0.3
	c-0.2-0.7-0.1-1.5,0.3-2.2c0.3-0.6,1-0.8,1.6-0.5c0.4,0.2,0.6,0.5,0.7,0.9c0.1,0.6,0,1.2-0.3,1.7C53.3,36.5,53,36.7,52.7,36.8z"/>
<path class="st0" d="M10.9,30.1l-0.1,0.8h-0.4c0-0.1,0-0.1,0-0.2c0-0.4,0-0.9,0-1.4c0.4,0,0.7,0,1,0.1c0.1,0,0.2,0.1,0.2,0.2
	c0.3,0.7,0.3,1.5,0.1,2.2c-0.2,0.6-0.9,1-1.5,0.8c-0.4-0.1-0.7-0.5-0.8-0.9c-0.2-0.5-0.2-1.1,0-1.7c0.1-0.2,0.3-0.5,0.5-0.6
	c0.1,0.3,0.3,0.6,0,0.9c-0.3,0.4-0.3,0.9-0.1,1.3c0.2,0.3,0.6,0.4,1,0.3c0.4-0.1,0.6-0.5,0.6-0.8c0-0.2,0-0.5-0.1-0.7
	C11.3,30.2,11.1,30.1,10.9,30.1L10.9,30.1z"/>
<path class="st0" d="M12.4,26.7c-0.1,0.4-0.3,0.9-0.5,1.3c-0.2,0.5-0.8,0.8-1.3,0.6c-0.6-0.1-1-0.6-1-1.2c-0.1-0.6,0.1-1.2,0.5-1.7
	c0.3-0.5,0.9-0.7,1.4-0.5C12.1,25.5,12.4,26.1,12.4,26.7z M10.1,27c0,0.5,0.3,0.9,0.8,0.9c0,0,0.1,0,0.1,0c0.5-0.1,0.9-0.5,0.9-1.1
	c0-0.5-0.4-0.9-0.8-0.9c-0.1,0-0.1,0-0.2,0C10.4,25.9,10.1,26.4,10.1,27L10.1,27z"/>
<path class="st0" d="M46.4,15.1c1,0.2,1.8,1,1.9,2c0,0.7-0.6,1.2-1.3,1.2c-0.1,0-0.3,0-0.4-0.1c-0.7-0.3-1.2-0.9-1.4-1.6
	c-0.2-0.6,0.2-1.3,0.9-1.5C46.3,15.1,46.3,15.1,46.4,15.1z M45.8,16.6c0,0.6,0.5,1,1,1.1c0.5,0,0.8-0.4,0.9-0.9
	c-0.1-0.5-0.5-1-1-1.1C46.2,15.7,45.9,16.1,45.8,16.6L45.8,16.6z"/>
<path class="st0" d="M13.2,39c0,0.7-0.5,1.3-1.2,1.3c-0.4,0-0.8-0.2-1-0.5c-0.4-0.5-0.6-1.1-0.6-1.7c0-0.7,0.6-1.2,1.3-1.2
	c0.3,0,0.6,0.1,0.8,0.4C13,37.8,13.2,38.4,13.2,39z M10.9,38.6c0,0.5,0.4,1,0.9,1.1c0.5,0,0.9-0.4,0.9-0.9c0,0,0,0,0,0
	c0-0.6-0.4-1-0.9-1.1c0,0,0,0,0,0C11.3,37.7,10.9,38,10.9,38.6C10.9,38.5,10.9,38.5,10.9,38.6L10.9,38.6z"/>
<path class="st0" d="M45.6,45.8l1.6,2l-2,1.6L45,49.1l1.5-1.2l-0.4-0.5l-1.4,1.1l-0.3-0.3l1.3-1.1l-0.4-0.5l-1.5,1.2l-0.3-0.3
	L45.6,45.8z"/>
<path class="st0" d="M39.3,49.7l0.7-0.2l0.8,2.4l-0.6,0.2l-0.3-0.9l-1.3,0.4l0.3,1l-0.6,0.2l-0.9-2.5l0.6-0.2l0.4,1l1.3-0.4
	L39.3,49.7z"/>
<path class="st0" d="M42.5,12.4l-0.3,0.5l1.5,0.9l-0.2,0.4l-1.5-0.8l-0.3,0.6l1.7,1l-0.2,0.4L40.9,14l1.2-2.3l2.3,1.3l-0.2,0.4
	L42.5,12.4z"/>
<path class="st0" d="M50.3,23.5l0.7,1.8l-0.4,0.2l-1-2.5l2.4-1l1,2.4l-0.4,0.2l-0.7-1.7L51.4,23l0.6,1.6l-0.4,0.2L51,23.2L50.3,23.5
	z"/>
<path class="st0" d="M22.6,51.3c0.3,0.1,0.6,0.1,0.7,0.5s0.5,0.3,0.8,0.4c0,0,0.2-0.1,0.2-0.1c0-0.1,0-0.2-0.1-0.2
	c-0.2-0.1-0.4-0.3-0.6-0.4c-0.2-0.1-0.4-0.3-0.6-0.5c-0.2-0.2-0.2-0.4-0.2-0.7c0.1-0.2,0.3-0.4,0.5-0.4c0.7-0.1,1.4,0.1,1.9,0.6
	c0.1,0.2,0.2,0.5,0.3,0.7c-0.3,0-0.7,0-0.8-0.4s-0.7-0.5-1-0.4s-0.3,0.2-0.1,0.4c0.1,0.1,0.2,0.1,0.3,0.2c0.2,0.1,0.5,0.3,0.7,0.4
	c0.4,0.3,0.6,0.6,0.5,0.9c-0.2,0.4-0.6,0.5-1,0.4c-0.4-0.1-0.8-0.3-1.2-0.5C22.6,51.9,22.5,51.6,22.6,51.3z"/>
<path class="st0" d="M26.1,10.6c-0.3,0.1-0.5,0.3-0.8,0.1c-0.2-0.1-0.6,0.1-0.9,0.3c0,0.1,0,0.1,0,0.2c0.1,0.1,0.1,0.1,0.2,0.1
	c0.3,0,0.6-0.1,0.9-0.1c0.2,0,0.4,0,0.6,0c0.4,0,0.6,0.4,0.5,0.7c0,0.1-0.1,0.3-0.2,0.3c-0.5,0.5-1.3,0.7-2,0.6
	c-0.2-0.1-0.4-0.3-0.6-0.4c0.4-0.2,0.6-0.4,0.9-0.1s0.9,0,1.1-0.3s0.1-0.4-0.2-0.4c-0.2,0-0.4,0-0.6,0c-0.3,0-0.5,0-0.8,0
	c-0.2-0.1-0.4-0.2-0.6-0.4c-0.1-0.2,0-0.5,0.2-0.7c0.5-0.4,1.1-0.6,1.7-0.5c0.2,0.1,0.4,0.2,0.6,0.3L26.1,10.6z"/>
<path class="st0" d="M16.4,18.4c-0.3,0.6-0.3,0.6-0.8,0.6c-0.1,0-0.2,0.1-0.3,0.1c-0.1,0.2-0.3,0.4-0.4,0.5
	c-0.3,0.2-0.3,0.6-0.1,0.9c0.1,0.1-0.1,0.5-0.2,0.7h-0.1c-0.4-0.7-0.7-1.5-1.1-2.2c-0.1-0.2-0.1-0.5,0.1-0.7
	c0.1-0.2,0.3-0.3,0.5-0.2C14.7,18.2,15.6,18.3,16.4,18.4z M13.8,18.7l0.5,1l0.6-0.8L13.8,18.7z"/>
<path class="st0" d="M35.3,9.3L36,9.5l-0.3,1.4c-0.1,0.6,0.2,1.1,0.9,0.9c0.2-0.1,0.3-0.2,0.4-0.4c0.1-0.2,0.2-0.5,0.2-0.8l0.2-0.8
	L38,9.9c-0.2,0.6-0.3,1.3-0.5,1.9c-0.1,0.2-0.4,0.4-0.6,0.4c-0.6,0.1-1.1,0-1.6-0.3c-0.3-0.2-0.5-0.5-0.4-0.8
	C35,10.5,35.1,10,35.3,9.3z"/>
<path class="st0" d="M41,49.9c0-0.1,0-0.1,0-0.2c0.2-0.8,0.8-1.4,1.7-1.5c0.7-0.1,1.3,0.4,1.4,1.1c0,0.1,0,0.1,0,0.2
	c-0.2,1-1.1,1.7-2.1,1.6c-0.1,0-0.3-0.1-0.4-0.2c0.2-0.2,0.4-0.5,0.8-0.4c0.5,0,0.9-0.3,1-0.7c0-0.5-0.3-0.9-0.8-1.1
	c-0.5,0-0.9,0.3-1,0.8C41.6,49.8,41.5,49.9,41,49.9z"/>
<path class="st0" d="M48.6,19.2l-0.9,0.6l-0.4-0.5l2.1-1.5l1.4,1.9L50.4,20l-1-1.4l-0.5,0.4l0.8,1.2l-0.3,0.3L48.6,19.2z"/>
<path class="st0" d="M33.2,9.6v2.1h-0.7V9.6h-1V9.2h2.8v0.4L33.2,9.6z"/>
<path class="st0" d="M13.9,44.9l0.7,0.8l1.6-1.3l0.5,0.5L15,46.2l0.6,0.8l-0.3,0.3l-1.8-2.1L13.9,44.9z"/>
<path class="st0" d="M38.9,13l0.8-2l-1-0.4l0.1-0.4l2.6,1l-0.1,0.4l-1-0.4l-0.8,2L38.9,13z"/>
<path class="st0" d="M47.7,46.9l0.7-0.8l-1.6-1.4l0.4-0.5l1.6,1.4l0.7-0.8l0.3,0.3L48,47.1L47.7,46.9z"/>
<path class="st0" d="M29.5,9.2l0.1,0.4l-1,0.2l0.3,2.1l-0.7,0.1L27.8,10l-1,0.1l-0.1-0.4L29.5,9.2z"/>
<path class="st0" d="M12.4,43.3l-0.3-0.6l1.8-1.1L13,40.1l0.4-0.2l1.2,2.1L12.4,43.3z"/>
<path class="st0" d="M17,17.6l1.3-1.2l0.3,0.3l-1.7,1.7l-1.7-1.9l-0.1,0.1l0.5-0.6L17,17.6z"/>
<path class="st0" d="M20.6,15.3l-0.6,0.4l-1.5-2.1l0.6-0.4L20.6,15.3z"/>
<path class="st0" d="M30.2,9.2l0.7-0.1l0.2,2.6h-0.7L30.2,9.2z"/>
<path class="st0" d="M36.7,51l-0.6,0.2L36,50.7l0.6-0.2L36.7,51z"/>
<path class="st0" d="M50.4,37.8l0.2-0.6l0.4,0.1l-0.2,0.6L50.4,37.8z"/>
<path class="st0" d="M36.4,33.8c-0.5,0.6-1,1.2-1.5,1.8c-0.1,0.1-0.1,0.3,0,0.4c0.2,0.5,0.5,0.9,0.7,1.4l-1.1,0.6
	c-0.2-0.4-0.4-0.8-0.5-1.3c0-0.2-0.2-0.3-0.4-0.2c0,0,0,0,0,0c-0.7,0.1-1.3,0.2-2,0.3c-0.2,0-0.3,0.1-0.3,0.3
	c-0.1,0.5-0.2,1-0.3,1.5L30,38.3l0.5-1.6l-2.2-1.3l-1.4,1.1l-0.7-1c0.4-0.3,0.8-0.5,1.2-0.7c0.1-0.1,0.2-0.2,0.2-0.4c0,0,0,0,0,0
	c-0.2-0.7-0.5-1.3-0.7-1.9c0-0.2-0.2-0.3-0.4-0.3h-1.5l0-1.2l1.6,0.2l0.7-1.8c0.2-0.6,0.2-0.6-0.3-1l-0.8-0.7c0,0,0-0.1-0.1-0.1
	l0.8-0.9c0.3,0.4,0.6,0.7,0.9,1c0.1,0.1,0.3,0.2,0.4,0.1c0,0,0,0,0,0c0.6-0.3,1.2-0.7,1.8-1c0.1-0.1,0.2-0.2,0.2-0.4
	c-0.1-0.5-0.2-1-0.3-1.5l1.2-0.2c0,0.5,0,0.9,0,1.3c0,0.3,0.1,0.4,0.3,0.4c0.7,0.1,1.3,0.2,1.9,0.4c0.2,0.1,0.4,0,0.4-0.2
	c0,0,0,0,0,0c0.2-0.4,0.5-0.9,0.8-1.3l1,0.7l-1,1.3c0.5,0.6,1,1.3,1.5,1.9c0.1,0.1,0.2,0.1,0.3,0c0.5-0.1,1-0.3,1.4-0.5l0.4,1.2
	l-1.6,0.4c0,0.8,0,1.6,0,2.4c0,0.1,0.1,0.2,0.2,0.3c0.5,0.2,0.9,0.4,1.4,0.5l-0.5,1.1L36.4,33.8z M31.7,27.1c-2.5,0-4.5,2-4.5,4.5
	c0,2.5,2,4.6,4.5,4.6c2.5,0,4.5-2,4.5-4.6l0,0C36.2,29.2,34.2,27.1,31.7,27.1z"/>
<path class="st0" d="M16.3,40.6c0.1-0.1,0.2-0.2,0.3-0.3l7.7-5.9l0.3-0.3l-10.2,0.7v-0.1l9.5-3l-0.4,1.4h0.3c0.6,0,1.3,0,1.9,0
	c0.2,0,0.3,0.1,0.4,0.3c0.3,0.8,0.3,0.8-0.4,1.2l-1.2,0.8l-0.1,0.1l1.3,1l-2.8,1.3l-6.2,2.7L16.3,40.6L16.3,40.6z"/>
<path class="st0" d="M25.4,26.8l-1.1,0.6l0.4,0.4l0.9,0.8c0.6,0.5,0.6,0.5,0.3,1.2c0,0.2-0.2,0.3-0.3,0.2c0,0,0,0,0,0l-1.8-0.3h-0.3
	l0.4,1.9l-9.7-2.8v-0.1l10.3,0.5v-0.1l-8.2-6v-0.1L25.4,26.8z"/>
<path class="st0" d="M27.9,38l-7.4,7h-0.1l5.3-8.3l0.6,1.5l1.9-1.6h0.1c0.9,0.5,0.9,0.5,0.6,1.4l-0.4,1.4l1.6-0.1l-4.4,9h-0.1
	L27.9,38L27.9,38z"/>
<path class="st0" d="M20.2,18.2l7.6,7h0.1l-2.3-10h0.1l4.3,8.6l-1.3-0.2l0.1,0.8c0.1,0.4,0.1,0.9,0.2,1.3s0,0.5-0.3,0.6
	c-0.2,0.1-0.4,0.2-0.6,0.3l-1.6-1.8l-0.9,1.8L20.2,18.2L20.2,18.2z"/>
<path class="st0" d="M30.4,39.3l1.4,0.8c0.1-0.7,0.3-1.4,0.4-2.1c0-0.3,0.1-0.4,0.4-0.4c0.7-0.1,0.7-0.1,1,0.5l0.7,1.7l1-1.3
	l0.1,0.1l2.4,9.4h-0.1l-4.8-9.2h-0.1l-1.1,10.3h-0.1L30.4,39.3z"/>
<path class="st0" d="M39,28.8v-1.5l-0.8,0.3l-0.7,0.3c-1,0.3-1,0.3-1.6-0.5l1.4-1.9l-1.7-0.5l7.2-6.6h0.1l-5.8,8.6v0.1l9.6-4v0
	L39,28.8z"/>
<path class="st0" d="M37.3,36.3l5.7,8.4l-0.1,0.1l-7.1-6.5l1.4-0.3c-0.3-0.6-0.7-1.2-1-1.8c-0.1-0.1-0.2-0.3-0.1-0.4
	c0.2-0.3,0.4-0.5,0.6-0.7c0,0,0.2,0,0.3,0.1l1.8,1l0.2-1.8l7.9,5.8v0.1l-9.5-4L37.3,36.3z"/>
<path class="st0" d="M48.8,28.6l-9.9,2.9l9.8,2.9v0.1l-9.6-0.5L40,33l-0.9-0.4l-0.7-0.3c-0.8-0.3-0.8-0.3-0.7-1.1
	c0-0.1,0.1-0.2,0.2-0.3c0.7-0.2,1.3-0.3,2.1-0.5l-1-1.4L48.8,28.6L48.8,28.6z"/>
<path class="st0" d="M31.5,29.1c0.5-0.5,1.3-0.7,1.9-0.3c0.1,0,0.1,0.1,0.2,0.2s0.3,0.2,0.4,0.3s0.2,0.1,0.3,0.2
	c0.2,1.3,0.5,2.7,0.7,4c0,0.1,0,0.1,0,0.2l-1.7-0.1c-0.5-0.1-1-0.1-1.5,0.1c-0.1,0-0.2,0-0.3,0c-0.8-0.2-1.7-0.2-2.6,0
	c-0.3,0-0.5,0-0.8,0l0.8-4.2c0-0.1,0-0.1,0.1-0.1c0.4,0,0.5-0.3,0.7-0.5C30.3,28.4,31.1,28.6,31.5,29.1z M33.8,32.3
	c-0.1-0.9-0.2-1.8-0.3-2.7s-0.2-0.9-1-0.9c-0.6,0-0.9,0.2-0.9,0.8s0,1.1,0,1.7c0,0.4,0,0.8,0,1.3C32.3,32.1,33,32.3,33.8,32.3
	L33.8,32.3z M29.3,32.3c0.8-0.1,1.5-0.3,2.1,0.2c0-0.1,0-0.3,0-0.4c0-0.8,0-1.6,0-2.4s-0.4-1.2-1.3-1l-0.2,0c-0.2,0-0.3,0.2-0.3,0.3
	c0,0,0,0,0,0c0,0.3-0.1,0.6-0.1,0.9L29.3,32.3z M34.5,33.3c-0.4,0-0.7,0-1,0c-0.6-0.1-1.2-0.1-1.8,0c-0.1,0-0.3,0-0.5,0
	c-0.1,0-0.2-0.1-0.3-0.1l-1.5,0.1c-0.3,0-0.5,0-0.8,0l0.6-3.8c-0.1,0-0.2,0.1-0.2,0.2c-0.2,0.8-0.3,1.6-0.4,2.4l-0.3,1.4h0.5
	c0.9-0.2,1.8-0.2,2.7,0c0.1,0,0.3,0,0.4,0c0.2,0,0.4-0.1,0.5-0.1c0.8,0,1.5,0.1,2.3,0.2c-0.2-1.4-0.4-2.7-0.7-4
	c0-0.1-0.1-0.1-0.2-0.2L34.5,33.3z M34.2,33.1c-0.2-0.2-0.3-0.5-0.5-0.5c-0.5-0.1-1-0.1-1.6-0.1c-0.3,0-0.6,0.2-0.6,0.5
	c0,0,0,0.1,0,0.1C32.5,32.8,33.3,33.2,34.2,33.1L34.2,33.1z M31.4,33.1c0-0.4-0.3-0.7-0.7-0.7c0,0,0,0,0,0c-0.3,0-0.7,0-1,0
	s-0.7,0.3-0.8,0.7C29.7,33,30.6,33,31.4,33.1L31.4,33.1z M29.5,29.3c-0.4,1.1-0.6,2.3-0.7,3.5C29.4,31.7,29.3,30.5,29.5,29.3z
	 M33.6,29.3h-0.1c0.1,1,0.2,2,0.4,3c0.1,0.2,0.2,0.3,0.3,0.5h0.1C34.1,31.6,33.9,30.5,33.6,29.3z"/>
</svg>
